<svg width="290" height="54" viewBox="0 0 290 54" fill="none" xmlns="http://www.w3.org/2000/svg">
<path d="M25.343 39.1322L19.8806 42.3267L18.1233 38.1739C16.3025 40.5925 13.6136 42.3267 10.1202 42.3267C3.47222 42.3267 0 36.3941 0 27.2214C0 17.2501 4.10738 11.8879 10.6495 11.8879C13.7195 11.8879 16.1119 13.1201 17.6575 15.4247V0.730103H23.2681V34.66L25.343 39.1322ZM17.6575 35.0935V19.4634C16.1966 18.1856 14.3758 17.387 12.4703 17.387C8.32062 17.387 5.86466 20.8096 5.86466 27.2442C5.86466 33.405 8.15124 36.8276 12.3645 36.8276C14.2276 36.8276 16.1543 36.1659 17.6575 35.0935Z" fill="black"/>
<path d="M53.1841 27.7691H34.7856C35.1667 32.8575 38.8506 36.2801 44.6729 36.2801C47.637 36.2801 50.8552 35.6184 53.0359 34.3863L51.2786 40.5927C49.4578 41.6651 46.3879 42.3268 42.8733 42.3268C34.5104 42.3268 29.0056 36.2345 29.0056 26.9249C29.0056 17.5696 34.2563 11.8652 42.6192 11.8652C49.5213 11.8652 53.8828 16.1093 53.8828 23.0003C53.8616 24.5747 53.6075 26.4229 53.1841 27.7691ZM35.1243 23.5707H48.378C48.124 19.2125 46.1973 17.1361 42.6192 17.1361C38.7024 17.1361 35.9924 19.532 35.1243 23.5707Z" fill="black"/>
<path d="M66.8613 41.5966L56.2542 12.5953H62.4364L69.3385 32.8574L70.1218 35.3674H70.3336L71.1169 32.8574L77.9767 12.5953H84.0531L73.5094 41.5966H66.8613Z" fill="black"/>
<path d="M102.43 12.6638H114.583L113.8 17.3186H101.647L97.3914 43.3992C96.2058 50.678 91.675 53.4161 85.3445 53.4161C82.444 53.4161 81.0889 52.9598 79.6281 52.6403L79.5222 47.9399C80.9831 48.2137 82.698 48.3963 85.0905 48.3963C88.8803 48.3963 91.3786 46.7762 91.9502 43.3535L96.2058 17.3186H87.737L88.5203 12.6638H96.9892L97.4126 9.97132C98.5982 2.73812 103.066 0 109.354 0C112.318 0 113.821 0.456353 115.112 0.775801L115.218 5.59033C113.757 5.20243 112.043 5.01988 109.65 5.01988C105.903 5.01988 103.425 6.63994 102.854 10.0626L102.43 12.6638Z" fill="black"/>
<path d="M139.693 27.7691H121.295C121.655 32.8575 125.339 36.2801 131.161 36.2801C134.125 36.2801 137.343 35.6184 139.524 34.3863L137.767 40.5927C135.946 41.6651 132.876 42.3268 129.361 42.3268C120.998 42.3268 115.494 36.2345 115.494 26.9249C115.494 17.5696 120.744 11.8652 129.107 11.8652C136.009 11.8652 140.371 16.1093 140.371 23.0003C140.35 24.5747 140.096 26.4229 139.693 27.7691ZM121.612 23.5707H134.866C134.612 19.2125 132.685 17.1361 129.107 17.1361C125.19 17.1361 122.48 19.532 121.612 23.5707Z" fill="black"/>
<path d="M145.706 39.8624L145.346 33.3594C147.739 35.162 152.1 36.7136 156.673 36.7136C160.145 36.7136 162.644 35.5271 162.644 32.903C162.644 27.4268 145.918 32.5151 145.918 21.3117C145.918 16.1092 149.559 11.6826 158.24 11.6826C163.533 11.6826 167.598 13.0745 167.598 16.5428C167.598 17.6152 167.175 18.5051 166.772 19.3494C164.486 18.1628 160.908 17.3414 157.88 17.3414C153.73 17.3414 151.55 19.0299 151.55 20.8781C151.55 25.7383 168.487 21.4942 168.487 32.401C168.487 38.4934 163.491 42.3039 156.08 42.3039C150.999 42.3267 147.209 40.5926 145.706 39.8624Z" fill="black"/>
<path d="M197.387 35.4358L196.244 41.0946C194.889 41.7107 192.2 42.3267 189.702 42.3267C182.99 42.3267 180.153 38.5846 180.153 33.2681V17.7065H172.51V12.6181H180.153V4.65479H185.764V12.5953H196.625V17.6837H185.764V31.3971C185.764 35.1392 187.585 36.8277 190.76 36.8277C192.56 36.8277 195.884 36.3941 197.387 35.4358Z" fill="black"/>
<path d="M211.721 42.7053C209.817 42.7053 208.072 42.1273 206.485 40.9713C204.898 39.8153 203.81 38.1946 203.221 36.1093L205.975 34.9873C206.36 36.4379 207.074 37.6279 208.117 38.5573C209.16 39.4866 210.384 39.9513 211.789 39.9513C213.194 39.9513 214.384 39.5773 215.359 38.8293C216.334 38.0586 216.821 37.0159 216.821 35.7013C216.821 34.5679 216.402 33.6386 215.563 32.9133C214.747 32.1653 213.398 31.4739 211.517 30.8393L209.987 30.2953C208.264 29.6833 206.859 28.8786 205.771 27.8813C204.683 26.8839 204.139 25.5013 204.139 23.7333C204.139 22.5773 204.456 21.5119 205.091 20.5373C205.726 19.5399 206.61 18.7466 207.743 18.1573C208.876 17.5679 210.146 17.2733 211.551 17.2733C212.956 17.2733 214.18 17.5339 215.223 18.0553C216.266 18.5766 217.093 19.2113 217.705 19.9593C218.34 20.7073 218.782 21.4439 219.031 22.1693L216.311 23.3253C216.084 22.4866 215.563 21.7273 214.747 21.0473C213.954 20.3673 212.9 20.0273 211.585 20.0273C210.338 20.0273 209.273 20.3786 208.389 21.0813C207.505 21.7839 207.063 22.6679 207.063 23.7333C207.063 24.6853 207.437 25.4673 208.185 26.0793C208.933 26.6686 210.066 27.2239 211.585 27.7453L213.183 28.2893C215.246 29.0373 216.855 29.9779 218.011 31.1113C219.167 32.2219 219.745 33.7406 219.745 35.6673C219.745 37.2313 219.337 38.5459 218.521 39.6113C217.728 40.6766 216.719 41.4586 215.495 41.9573C214.271 42.4559 213.013 42.7053 211.721 42.7053ZM229.194 42.7053C227.108 42.7053 225.51 42.0933 224.4 40.8693C223.312 39.6453 222.768 37.9339 222.768 35.7353V24.8213H225.658V35.2933C225.658 36.9479 226.032 38.1606 226.78 38.9313C227.528 39.7019 228.536 40.0873 229.806 40.0873C230.78 40.0873 231.642 39.8266 232.39 39.3053C233.16 38.7839 233.75 38.1039 234.158 37.2653C234.588 36.4266 234.804 35.5426 234.804 34.6133V24.8213H237.694V42.1613H234.94V39.6453H234.804C234.328 40.5066 233.568 41.2319 232.526 41.8213C231.483 42.4106 230.372 42.7053 229.194 42.7053ZM249.65 42.7053C247.973 42.7053 246.466 42.3086 245.128 41.5153C243.791 40.6993 242.748 39.5999 242 38.2173C241.252 36.8119 240.878 35.2366 240.878 33.4913C240.878 31.7459 241.252 30.1706 242 28.7653C242.748 27.3599 243.791 26.2606 245.128 25.4673C246.466 24.6739 247.973 24.2773 249.65 24.2773C251.532 24.2773 253.107 24.7193 254.376 25.6033C255.668 26.4646 256.586 27.6206 257.13 29.0713L254.512 30.1593C254.082 29.0939 253.436 28.2893 252.574 27.7453C251.736 27.1786 250.716 26.8953 249.514 26.8953C248.494 26.8953 247.542 27.1786 246.658 27.7453C245.774 28.2893 245.06 29.0599 244.516 30.0573C243.995 31.0546 243.734 32.1993 243.734 33.4913C243.734 34.7833 243.995 35.9279 244.516 36.9253C245.06 37.9226 245.774 38.7046 246.658 39.2713C247.542 39.8153 248.494 40.0873 249.514 40.0873C250.738 40.0873 251.792 39.8039 252.676 39.2373C253.56 38.6706 254.218 37.8659 254.648 36.8233L257.232 37.9113C256.643 39.3393 255.691 40.4953 254.376 41.3793C253.084 42.2633 251.509 42.7053 249.65 42.7053ZM260.191 24.8213H262.945V27.6093H263.081C263.421 26.6573 264.078 25.8753 265.053 25.2633C266.027 24.6286 267.047 24.3113 268.113 24.3113C268.906 24.3113 269.586 24.4246 270.153 24.6513V27.7793C269.427 27.4166 268.611 27.2353 267.705 27.2353C266.866 27.2353 266.095 27.4733 265.393 27.9493C264.69 28.4253 264.123 29.0713 263.693 29.8873C263.285 30.6806 263.081 31.5419 263.081 32.4713V42.1613H260.191V24.8213ZM279.629 42.7053C277.975 42.7053 276.49 42.3086 275.175 41.5153C273.861 40.7219 272.829 39.6339 272.081 38.2513C271.356 36.8459 270.993 35.2706 270.993 33.5253C270.993 31.8479 271.333 30.3066 272.013 28.9013C272.716 27.4959 273.702 26.3739 274.971 25.5353C276.241 24.6966 277.714 24.2773 279.391 24.2773C281.091 24.2773 282.565 24.6626 283.811 25.4333C285.058 26.1813 286.01 27.2239 286.667 28.5613C287.347 29.8986 287.687 31.4286 287.687 33.1513C287.687 33.4913 287.653 33.7859 287.585 34.0353H273.883C273.951 35.3499 274.269 36.4606 274.835 37.3673C275.402 38.2739 276.116 38.9539 276.977 39.4073C277.861 39.8606 278.779 40.0873 279.731 40.0873C281.953 40.0873 283.664 39.0446 284.865 36.9593L287.313 38.1493C286.565 39.5546 285.545 40.6653 284.253 41.4813C282.984 42.2973 281.443 42.7053 279.629 42.7053ZM284.627 31.6553C284.582 30.9299 284.378 30.2046 284.015 29.4793C283.653 28.7539 283.075 28.1419 282.281 27.6433C281.511 27.1446 280.536 26.8953 279.357 26.8953C277.997 26.8953 276.841 27.3373 275.889 28.2213C274.96 29.0826 274.348 30.2273 274.053 31.6553H284.627Z" fill="#4285F4"/>
</svg>
