<svg width="120" height="46" viewBox="0 0 120 46" fill="none" xmlns="http://www.w3.org/2000/svg">
<path d="M5.17 32.8276V30.9677H3.63514V30.1994H6.0989V33.1915C5.72192 33.4611 5.31802 33.6498 4.88719 33.7576C4.45635 33.8924 3.98513 33.9598 3.47352 33.9598C2.39644 33.9598 1.54832 33.6498 0.929 33.0298C0.30968 32.3829 0 31.4933 0 30.3612C0 29.2021 0.30968 28.3125 0.929 27.6925C1.54832 27.0456 2.39644 26.7221 3.47352 26.7221C3.93128 26.7221 4.36219 26.776 4.76609 26.8839C5.19693 26.9917 5.57382 27.1669 5.89695 27.4095V28.3799C5.5469 28.0834 5.1834 27.8677 4.80643 27.733C4.40252 27.5712 3.98521 27.4904 3.55438 27.4904C2.71964 27.4904 2.08678 27.733 1.65595 28.2182C1.22512 28.7034 1.00976 29.4177 1.00976 30.3612C1.00976 31.3046 1.22512 32.0055 1.65595 32.4637C2.08678 32.9489 2.71964 33.1915 3.55438 33.1915C3.90443 33.1915 4.20061 33.1646 4.44295 33.1107C4.71222 33.0568 4.95458 32.9624 5.17 32.8276ZM9.73404 29.1886C9.24936 29.1886 8.87246 29.3773 8.60319 29.7547C8.36084 30.1051 8.23961 30.5903 8.23961 31.2103C8.23961 31.8572 8.36084 32.3559 8.60319 32.7063C8.87246 33.0568 9.24936 33.232 9.73404 33.232C10.1918 33.232 10.5554 33.0568 10.8247 32.7063C11.067 32.3289 11.1881 31.8303 11.1881 31.2103C11.1881 30.5903 11.067 30.1051 10.8247 29.7547C10.5554 29.3773 10.1918 29.1886 9.73404 29.1886ZM9.73404 28.4608C10.4611 28.4608 11.04 28.7034 11.4709 29.1886C11.9017 29.6738 12.1171 30.3477 12.1171 31.2103C12.1171 32.0729 11.9017 32.7468 11.4709 33.232C11.04 33.7172 10.4611 33.9598 9.73404 33.9598C8.98009 33.9598 8.38773 33.7172 7.9569 33.232C7.52607 32.7468 7.31061 32.0729 7.31061 31.2103C7.31061 30.3477 7.52607 29.6738 7.9569 29.1886C8.38773 28.7034 8.98009 28.4608 9.73404 28.4608ZM15.4696 29.1886C15.0118 29.1886 14.6482 29.3773 14.3789 29.7547C14.1097 30.1051 13.975 30.5903 13.975 31.2103C13.975 31.8572 14.1097 32.3559 14.3789 32.7063C14.6482 33.0568 15.0118 33.232 15.4696 33.232C15.9273 33.232 16.2908 33.0568 16.5601 32.7063C16.8294 32.3289 16.964 31.8303 16.964 31.2103C16.964 30.5903 16.8294 30.1051 16.5601 29.7547C16.2908 29.3773 15.9273 29.1886 15.4696 29.1886ZM15.4696 28.4608C16.2235 28.4608 16.8159 28.7034 17.2467 29.1886C17.6775 29.6738 17.893 30.3477 17.893 31.2103C17.893 32.0729 17.6775 32.7468 17.2467 33.232C16.8159 33.7172 16.2235 33.9598 15.4696 33.9598C14.7156 33.9598 14.1232 33.7172 13.6923 33.232C13.2884 32.7468 13.0865 32.0729 13.0865 31.2103C13.0865 30.3477 13.2884 29.6738 13.6923 29.1886C14.1232 28.7034 14.7156 28.4608 15.4696 28.4608ZM22.659 31.1698C22.659 30.5499 22.5244 30.0646 22.2551 29.7142C22.0127 29.3638 21.6627 29.1886 21.205 29.1886C20.7203 29.1886 20.3568 29.3638 20.1145 29.7142C19.8452 30.0646 19.7106 30.5499 19.7106 31.1698C19.7106 31.7898 19.8452 32.2615 20.1145 32.585C20.3568 32.9354 20.7203 33.1107 21.205 33.1107C21.6627 33.1107 22.0127 32.9354 22.2551 32.585C22.5244 32.2615 22.659 31.7898 22.659 31.1698ZM23.5072 28.5821V33.1915C23.5072 34.0811 23.3053 34.7415 22.9014 35.1728C22.5244 35.6041 21.9185 35.8197 21.0838 35.8197C20.7876 35.8197 20.5048 35.8062 20.2356 35.7793C19.9663 35.7254 19.7105 35.6445 19.4682 35.5367V34.728C19.7105 34.8628 19.9529 34.9571 20.1952 35.011C20.4645 35.0919 20.7203 35.1324 20.9626 35.1324C21.5281 35.1324 21.9455 34.9841 22.2148 34.6876C22.5109 34.3911 22.659 33.9463 22.659 33.3533V32.9085C22.4705 33.232 22.2416 33.4611 21.9724 33.5959C21.7031 33.7576 21.3665 33.8385 20.9626 33.8385C20.3433 33.8385 19.8317 33.5959 19.4278 33.1107C19.0238 32.6255 18.8219 31.9785 18.8219 31.1698C18.8219 30.3612 19.0238 29.7007 19.4278 29.1886C19.8317 28.7034 20.3433 28.4608 20.9626 28.4608C21.3665 28.4608 21.7031 28.5416 21.9724 28.7034C22.2416 28.8651 22.4705 29.0942 22.659 29.3908V28.5821H23.5072ZM25.1633 33.8385V26.5604H26.0518V33.8385H25.1633ZM32.1912 31.0081V31.4124H28.2329C28.2598 32.0055 28.4349 32.4637 28.758 32.7872C29.0811 33.0837 29.5254 33.232 30.0909 33.232C30.4409 33.232 30.764 33.1915 31.0602 33.1107C31.3833 33.0298 31.693 32.9085 31.9892 32.7468V33.5554C31.693 33.6902 31.3833 33.798 31.0602 33.8789C30.7371 33.9328 30.4005 33.9598 30.0505 33.9598C29.2157 33.9598 28.5561 33.7172 28.0714 33.232C27.5867 32.7468 27.3443 32.0863 27.3443 31.2507C27.3443 30.4151 27.5732 29.7412 28.0309 29.229C28.4887 28.7169 29.1081 28.4608 29.8889 28.4608C30.616 28.4608 31.1814 28.6899 31.5853 29.1482C31.9892 29.6064 32.1912 30.2264 32.1912 31.0081ZM28.2733 30.7655H31.3429C31.316 30.2803 31.1814 29.9029 30.939 29.6334C30.6698 29.3368 30.3332 29.1886 29.9293 29.1886C29.4446 29.1886 29.0542 29.3234 28.758 29.5929C28.4618 29.8625 28.3002 30.2533 28.2733 30.7655ZM38.5729 27.6117H37.4419V33.0702H38.5729C39.5423 33.0702 40.2423 32.8546 40.6732 32.4233C41.1309 31.965 41.3598 31.2642 41.3598 30.3207C41.3598 29.4042 41.1309 28.7303 40.6732 28.299C40.2423 27.8408 39.5423 27.6117 38.5729 27.6117ZM36.4726 33.8385V26.8434H38.4517C39.798 26.8434 40.7809 27.1265 41.4002 27.6925C42.0465 28.2586 42.3696 29.1347 42.3696 30.3207C42.3696 31.5337 42.0465 32.4233 41.4002 32.9894C40.754 33.5554 39.7711 33.8385 38.4517 33.8385H36.4726ZM48.1858 31.0081V31.4124H44.2276C44.2545 32.0055 44.4295 32.4637 44.7526 32.7872C45.0758 33.0837 45.52 33.232 46.0855 33.232C46.4086 33.232 46.7318 33.1915 47.0549 33.1107C47.3511 33.0298 47.6608 32.9085 47.9839 32.7468V33.5554C47.6608 33.6902 47.3376 33.798 47.0145 33.8789C46.6913 33.9328 46.3682 33.9598 46.0451 33.9598C45.2104 33.9598 44.5372 33.7172 44.0256 33.232C43.5409 32.7468 43.2986 32.0863 43.2986 31.2507C43.2986 30.4151 43.5409 29.7412 44.0256 29.229C44.4834 28.7169 45.1026 28.4608 45.8835 28.4608C46.5836 28.4608 47.1356 28.6899 47.5396 29.1482C47.9704 29.6064 48.1858 30.2264 48.1858 31.0081ZM44.2276 30.7655H47.2972C47.2972 30.2803 47.1625 29.9029 46.8933 29.6334C46.6509 29.3368 46.3143 29.1886 45.8835 29.1886C45.3988 29.1886 45.0219 29.3234 44.7526 29.5929C44.4565 29.8625 44.2814 30.2533 44.2276 30.7655ZM50.8112 33.8385L48.8725 28.5821H49.761L51.4171 32.9894L53.0327 28.5821H53.9616L51.9825 33.8385H50.8112ZM59.5355 31.0081V31.4124H55.5772C55.6041 32.0055 55.7792 32.4637 56.1023 32.7872C56.4254 33.0837 56.8697 33.232 57.4352 33.232C57.7583 33.232 58.0814 33.1915 58.4045 33.1107C58.7007 33.0298 59.0104 32.9085 59.3335 32.7468V33.5554C59.0104 33.6902 58.6873 33.798 58.3642 33.8789C58.0411 33.9328 57.7179 33.9598 57.3948 33.9598C56.56 33.9598 55.9004 33.7172 55.4157 33.232C54.931 32.7468 54.6886 32.0863 54.6886 31.2507C54.6886 30.4151 54.9175 29.7412 55.3753 29.229C55.833 28.7169 56.4524 28.4608 57.2333 28.4608C57.9334 28.4608 58.4988 28.6899 58.9296 29.1482C59.3335 29.6064 59.5355 30.2264 59.5355 31.0081ZM55.6176 30.7655H58.6874C58.6604 30.2803 58.5258 29.9029 58.2835 29.6334C58.0142 29.3368 57.6641 29.1886 57.2333 29.1886C56.7755 29.1886 56.3985 29.3234 56.1023 29.5929C55.8061 29.8625 55.6446 30.2533 55.6176 30.7655ZM60.828 33.8385V26.5604H61.7166V33.8385H60.828ZM65.3921 29.1886C64.9344 29.1886 64.5709 29.3773 64.3016 29.7547C64.0323 30.1051 63.8977 30.5903 63.8977 31.2103C63.8977 31.8572 64.0323 32.3559 64.3016 32.7063C64.5709 33.0568 64.9344 33.232 65.3921 33.232C65.8499 33.232 66.2134 33.0568 66.4826 32.7063C66.7519 32.3289 66.8865 31.8303 66.8865 31.2103C66.8865 30.5903 66.7519 30.1051 66.4826 29.7547C66.2134 29.3773 65.8499 29.1886 65.3921 29.1886ZM65.3921 28.4608C66.1461 28.4608 66.7385 28.7034 67.1694 29.1886C67.6002 29.6738 67.8155 30.3477 67.8155 31.2103C67.8155 32.0729 67.6002 32.7468 67.1694 33.232C66.7385 33.7172 66.1461 33.9598 65.3921 33.9598C64.6382 33.9598 64.0592 33.7172 63.6553 33.232C63.2245 32.7468 63.0091 32.0729 63.0091 31.2103C63.0091 30.3477 63.2245 29.6738 63.6553 29.1886C64.0592 28.7034 64.6382 28.4608 65.3921 28.4608ZM69.9563 33.0702V35.8197H69.108V28.5821H69.9563V29.3908C70.1447 29.0673 70.3736 28.8382 70.6429 28.7034C70.9391 28.5416 71.2757 28.4608 71.6526 28.4608C72.272 28.4608 72.7836 28.7169 73.1875 29.229C73.5914 29.7412 73.7933 30.4016 73.7933 31.2103C73.7933 32.0459 73.5914 32.7198 73.1875 33.232C72.7836 33.7172 72.272 33.9598 71.6526 33.9598C71.2757 33.9598 70.9391 33.8924 70.6429 33.7576C70.3736 33.5959 70.1447 33.3667 69.9563 33.0702ZM72.9048 31.2103C72.9048 30.5903 72.7701 30.1051 72.5009 29.7547C72.2585 29.3773 71.9084 29.1886 71.4507 29.1886C70.9929 29.1886 70.6294 29.3773 70.3602 29.7547C70.0909 30.1051 69.9563 30.5903 69.9563 31.2103C69.9563 31.8572 70.0909 32.3559 70.3602 32.7063C70.6294 33.0837 70.9929 33.2724 71.4507 33.2724C71.9084 33.2724 72.2585 33.0837 72.5009 32.7063C72.7701 32.3559 72.9048 31.8572 72.9048 31.2103ZM79.6095 31.0081V31.4124H75.6513C75.6783 32.0055 75.8532 32.4637 76.1763 32.7872C76.4995 33.0837 76.9438 33.232 77.5093 33.232C77.8324 33.232 78.1556 33.1915 78.4787 33.1107C78.7749 33.0298 79.0845 32.9085 79.4076 32.7468V33.5554C79.0845 33.6902 78.7614 33.798 78.4383 33.8789C78.1151 33.9328 77.792 33.9598 77.4689 33.9598C76.6342 33.9598 75.9744 33.7172 75.4897 33.232C75.005 32.7468 74.7627 32.0863 74.7627 31.2507C74.7627 30.4151 74.9916 29.7412 75.4494 29.229C75.9072 28.7169 76.5264 28.4608 77.3073 28.4608C78.0074 28.4608 78.5594 28.6899 78.9633 29.1482C79.3942 29.6064 79.6095 30.2264 79.6095 31.0081ZM75.6917 30.7655H78.721C78.721 30.2803 78.5998 29.9029 78.3575 29.6334C78.0882 29.3368 77.7381 29.1886 77.3073 29.1886C76.8495 29.1886 76.4725 29.3234 76.1763 29.5929C75.8802 29.8625 75.7186 30.2533 75.6917 30.7655ZM83.9314 28.5012V29.3908C83.8506 29.3368 83.7563 29.2964 83.6486 29.2695C83.5139 29.2425 83.3793 29.229 83.2447 29.229C82.76 29.229 82.3831 29.3908 82.1138 29.7142C81.8715 30.0377 81.7502 30.4959 81.7502 31.089V33.8385H80.8617V28.5821H81.7502V29.4312C81.9387 29.1077 82.1676 28.8651 82.4369 28.7034C82.7331 28.5416 83.0967 28.4608 83.5275 28.4608C83.5813 28.4608 83.6352 28.4743 83.689 28.5012C83.7698 28.5012 83.8506 28.5012 83.9314 28.5012ZM92.4941 32.8276V30.9677H90.9593V30.1994H93.4232V33.1915C93.0731 33.4611 92.6692 33.6498 92.2114 33.7576C91.7806 33.8924 91.3228 33.9598 90.8381 33.9598C89.7341 33.9598 88.8725 33.6498 88.2532 33.0298C87.6338 32.3829 87.3242 31.4933 87.3242 30.3612C87.3242 29.2021 87.6338 28.3125 88.2532 27.6925C88.8725 27.0456 89.7341 26.7221 90.8381 26.7221C91.2689 26.7221 91.6997 26.776 92.1306 26.8839C92.5345 26.9917 92.9115 27.1669 93.2615 27.4095V28.3799C92.9115 28.0834 92.5345 27.8677 92.1306 27.733C91.7536 27.5712 91.3363 27.4904 90.8785 27.4904C90.0438 27.4904 89.411 27.733 88.9802 28.2182C88.5494 28.7034 88.3339 29.4177 88.3339 30.3612C88.3339 31.3046 88.5494 32.0055 88.9802 32.4637C89.411 32.9489 90.0438 33.1915 90.8785 33.1915C91.2286 33.1915 91.5383 33.1646 91.8075 33.1107C92.0499 33.0568 92.2787 32.9624 92.4941 32.8276ZM98.0681 28.5012V29.3908C97.9604 29.3368 97.8526 29.2964 97.7449 29.2695C97.6372 29.2425 97.516 29.229 97.3813 29.229C96.8966 29.229 96.5198 29.3908 96.2505 29.7142C95.9812 30.0377 95.8466 30.4959 95.8466 31.089V33.8385H94.9983V28.5821H95.8466V29.4312C96.0351 29.1077 96.2773 28.8651 96.5735 28.7034C96.8428 28.5416 97.1929 28.4608 97.6237 28.4608C97.6776 28.4608 97.7449 28.4743 97.8257 28.5012C97.8795 28.5012 97.9604 28.5012 98.0681 28.5012ZM100.693 29.1886C100.236 29.1886 99.8721 29.3773 99.6028 29.7547C99.3335 30.1051 99.1989 30.5903 99.1989 31.2103C99.1989 31.8572 99.3201 32.3559 99.5625 32.7063C99.8318 33.0568 100.209 33.232 100.693 33.232C101.151 33.232 101.515 33.0568 101.784 32.7063C102.053 32.3289 102.188 31.8303 102.188 31.2103C102.188 30.5903 102.053 30.1051 101.784 29.7547C101.515 29.3773 101.151 29.1886 100.693 29.1886ZM100.693 28.4608C101.42 28.4608 101.999 28.7034 102.43 29.1886C102.861 29.6738 103.076 30.3477 103.076 31.2103C103.076 32.0729 102.861 32.7468 102.43 33.232C101.999 33.7172 101.42 33.9598 100.693 33.9598C99.9395 33.9598 99.347 33.7172 98.9162 33.232C98.4854 32.7468 98.27 32.0729 98.27 31.2103C98.27 30.3477 98.4854 29.6738 98.9162 29.1886C99.347 28.7034 99.9395 28.4608 100.693 28.4608ZM104.329 31.7763V28.5821H105.177V31.7359C105.177 32.2211 105.271 32.5985 105.459 32.8681C105.675 33.1107 105.971 33.232 106.348 33.232C106.806 33.232 107.169 33.0837 107.439 32.7872C107.708 32.4907 107.843 32.0863 107.843 31.5742V28.5821H108.691V33.8385H107.843V33.0298C107.627 33.3533 107.385 33.5959 107.115 33.7576C106.846 33.8924 106.523 33.9598 106.146 33.9598C105.554 33.9598 105.096 33.7711 104.773 33.3937C104.477 33.0433 104.329 32.5042 104.329 31.7763ZM111.235 33.0702V35.8197H110.347V28.5821H111.235V29.3908C111.397 29.0673 111.612 28.8382 111.882 28.7034C112.178 28.5416 112.514 28.4608 112.891 28.4608C113.538 28.4608 114.049 28.7169 114.426 29.229C114.83 29.7412 115.032 30.4016 115.032 31.2103C115.032 32.0459 114.83 32.7198 114.426 33.232C114.049 33.7172 113.538 33.9598 112.891 33.9598C112.514 33.9598 112.178 33.8924 111.882 33.7576C111.612 33.5959 111.397 33.3667 111.235 33.0702ZM114.143 31.2103C114.143 30.5903 114.009 30.1051 113.739 29.7547C113.497 29.3773 113.147 29.1886 112.689 29.1886C112.232 29.1886 111.868 29.3773 111.599 29.7547C111.357 30.1051 111.235 30.5903 111.235 31.2103C111.235 31.8572 111.357 32.3559 111.599 32.7063C111.868 33.0837 112.232 33.2724 112.689 33.2724C113.147 33.2724 113.497 33.0837 113.739 32.7063C114.009 32.3559 114.143 31.8572 114.143 31.2103ZM119.717 28.7438V29.5525C119.475 29.4447 119.219 29.3503 118.95 29.2695C118.681 29.2155 118.411 29.1886 118.142 29.1886C117.711 29.1886 117.388 29.256 117.173 29.3908C116.957 29.5255 116.85 29.7277 116.85 29.9973C116.85 30.186 116.93 30.3342 117.092 30.442C117.227 30.5499 117.536 30.6577 118.021 30.7655L118.304 30.8464C118.896 30.9812 119.327 31.1698 119.596 31.4124C119.865 31.6281 120 31.9516 120 32.3828C120 32.8681 119.798 33.2589 119.394 33.5554C119.017 33.825 118.492 33.9598 117.819 33.9598C117.55 33.9598 117.254 33.9328 116.93 33.8789C116.634 33.825 116.325 33.7441 116.001 33.6363V32.7468C116.298 32.9085 116.607 33.0433 116.93 33.1511C117.227 33.232 117.523 33.2724 117.819 33.2724C118.223 33.2724 118.546 33.1915 118.788 33.0298C119.004 32.895 119.111 32.7063 119.111 32.4637C119.111 32.2211 119.031 32.0459 118.869 31.9381C118.708 31.8033 118.357 31.682 117.819 31.5742L117.536 31.4933C116.998 31.3855 116.607 31.2103 116.365 30.9677C116.123 30.7251 116.001 30.4016 116.001 29.9973C116.001 29.5121 116.176 29.1347 116.526 28.8651C116.877 28.5956 117.375 28.4608 118.021 28.4608C118.344 28.4608 118.64 28.4877 118.909 28.5416C119.206 28.5956 119.475 28.6629 119.717 28.7438ZM53.8001 40.227V40.9144C53.5308 40.7796 53.2884 40.6852 53.073 40.6313C52.8307 40.5774 52.6018 40.5505 52.3864 40.5505C52.0094 40.5505 51.7267 40.6179 51.5382 40.7526C51.3228 40.9144 51.2151 41.13 51.2151 41.3996C51.2151 41.6152 51.2824 41.777 51.4171 41.8848C51.5517 41.9926 51.8075 42.0869 52.1845 42.1678L52.5884 42.2487C53.1269 42.3565 53.5173 42.5317 53.7596 42.7743C54.002 43.0169 54.1232 43.3404 54.1232 43.7447C54.1232 44.2569 53.9482 44.6343 53.5981 44.8769C53.275 45.1195 52.7903 45.2408 52.144 45.2408C51.9286 45.2408 51.6728 45.2138 51.3766 45.1599C51.1074 45.106 50.8381 45.0251 50.5688 44.9173V44.2299C50.8381 44.3917 51.1074 44.513 51.3766 44.5938C51.6459 44.6747 51.9017 44.7151 52.144 44.7151C52.5479 44.7151 52.8576 44.6343 53.073 44.4725C53.2884 44.3108 53.3962 44.0952 53.3962 43.8256C53.3962 43.556 53.3153 43.3539 53.1538 43.2191C52.9922 43.0843 52.75 42.9765 52.4268 42.8956L51.9825 42.8148C51.4709 42.7069 51.1074 42.5452 50.892 42.3295C50.6496 42.1139 50.5284 41.8174 50.5284 41.44C50.5284 40.9818 50.69 40.6313 51.0132 40.3887C51.3363 40.1192 51.7671 39.9844 52.3056 39.9844C52.548 39.9844 52.7904 40.0113 53.0327 40.0653C53.275 40.0922 53.5308 40.1461 53.8001 40.227ZM55.0925 43.6639V41.3591H55.6984V43.6234C55.6984 44.0008 55.7792 44.2704 55.9408 44.4321C56.0754 44.6208 56.2774 44.7151 56.5466 44.7151C56.8967 44.7151 57.166 44.6073 57.3545 44.3917C57.5429 44.176 57.6372 43.8795 57.6372 43.5021V41.3591H58.2835V45.1599H57.6372V44.5938C57.5025 44.8095 57.3275 44.9712 57.1121 45.079C56.9236 45.1869 56.6947 45.2408 56.4255 45.2408C55.9946 45.2408 55.658 45.106 55.4157 44.8364C55.2003 44.5669 55.0925 44.176 55.0925 43.6639ZM62.3225 41.4804V42.0869C62.134 41.9791 61.9455 41.8983 61.757 41.8443C61.5954 41.8174 61.4204 41.8039 61.2319 41.8039C60.828 41.8039 60.5184 41.9252 60.303 42.1678C60.0606 42.4374 59.9394 42.8013 59.9394 43.2595C59.9394 43.7178 60.0606 44.0817 60.303 44.3512C60.5184 44.5938 60.828 44.7151 61.2319 44.7151C61.4204 44.7151 61.5954 44.7017 61.757 44.6747C61.9455 44.6208 62.134 44.5399 62.3225 44.4321V44.9982C62.134 45.079 61.9455 45.1464 61.757 45.2003C61.5685 45.2273 61.3665 45.2408 61.1511 45.2408C60.5857 45.2408 60.1279 45.0656 59.7779 44.7151C59.4548 44.3647 59.2932 43.8795 59.2932 43.2595C59.2932 42.6395 59.4682 42.1543 59.8182 41.8039C60.1413 41.4265 60.5992 41.2378 61.1915 41.2378C61.38 41.2378 61.5685 41.2648 61.757 41.3187C61.9455 41.3457 62.134 41.3996 62.3225 41.4804ZM65.5941 41.2783V41.9252C65.5133 41.8983 65.4326 41.8713 65.3518 41.8443C65.271 41.8174 65.1902 41.8039 65.1094 41.8039C64.7324 41.8039 64.4497 41.9252 64.2612 42.1678C64.0727 42.3835 63.9784 42.7069 63.9784 43.1382V45.1599H63.3726V41.3591H63.9784V41.9252C64.1131 41.7096 64.2881 41.5478 64.5035 41.44C64.719 41.3052 64.9747 41.2378 65.2709 41.2378C65.3248 41.2378 65.3787 41.2513 65.4325 41.2783C65.4864 41.2783 65.5402 41.2783 65.5941 41.2783ZM69.3504 43.0978V43.4213H66.4826C66.5096 43.8526 66.6442 44.176 66.8865 44.3917C67.102 44.6073 67.4251 44.7151 67.856 44.7151C68.0983 44.7151 68.3272 44.6882 68.5426 44.6343C68.758 44.5804 68.9869 44.4995 69.2292 44.3917V44.9577C68.9869 45.0656 68.7445 45.1464 68.5022 45.2003C68.2867 45.2273 68.0579 45.2408 67.8155 45.2408C67.1962 45.2408 66.7116 45.0656 66.3615 44.7151C66.0115 44.3647 65.8364 43.893 65.8364 43.3C65.8364 42.68 65.998 42.1813 66.3211 41.8039C66.6712 41.4265 67.1289 41.2378 67.6944 41.2378C68.206 41.2378 68.6099 41.4131 68.9061 41.7635C69.2023 42.0869 69.3504 42.5317 69.3504 43.0978ZM66.4826 42.9361L68.7445 42.8956C68.7176 42.5721 68.6234 42.3026 68.4618 42.0869C68.2733 41.8983 68.0175 41.8039 67.6944 41.8039C67.3443 41.8039 67.0616 41.8983 66.8462 42.0869C66.6577 42.2756 66.5365 42.5587 66.4826 42.9361Z" fill="#514C4C"/>
<path d="M42.5948 6.53543L53.2174 0.389562C54.6311 -0.419105 56.489 0.0660964 57.3372 1.5217C58.1854 2.9773 57.6603 4.7968 56.2063 5.6459L50.1074 9.20403L42.5948 6.53543Z" fill="#EA4335"/>
<path d="M53.2058 17.9002L42.5832 11.7543C41.1292 10.9456 40.6445 9.08567 41.4927 7.63007C42.3005 6.2149 44.1584 5.68926 45.6125 6.53836L56.1947 12.6842C57.6487 13.4929 58.1738 15.3528 57.3256 16.8085C56.7602 17.7789 55.7504 18.3045 54.7003 18.3045C54.1752 18.3045 53.6905 18.1832 53.2058 17.9002Z" fill="#4285F4"/>
<path d="M62.6122 16.8043C61.8044 15.3487 62.2891 13.4887 63.7431 12.6801L69.9631 9.04108L77.3546 11.7501L66.7724 17.896C66.2877 18.179 65.7626 18.3003 65.2375 18.3003C64.1874 18.3003 63.1776 17.7747 62.6122 16.8043V16.8043Z" fill="#FBBC04"/>
<path d="M74.3253 11.7513L63.7431 5.6459C62.2891 4.7968 61.8044 2.9773 62.6122 1.5217C63.4604 0.0660964 65.3183 -0.419105 66.7724 0.389562L77.3545 6.53543C78.8086 7.38453 79.2933 9.20404 78.4451 10.6596C77.92 11.63 76.8699 12.1557 75.8601 12.1557C75.3351 12.1557 74.81 12.0344 74.3253 11.7513V11.7513Z" fill="#0F9D58"/>
</svg>
