<svg width="35" height="35" viewBox="0 0 35 35" fill="none" xmlns="http://www.w3.org/2000/svg">
<g clip-path="url(#clip0_21_207)">
<path fill-rule="evenodd" clip-rule="evenodd" d="M7.53033 17.5C7.53033 16.3885 7.71492 15.323 8.04439 14.3235L2.27754 9.91977C1.15362 12.2018 0.520386 14.7731 0.520386 17.5C0.520386 20.2245 1.15284 22.7943 2.27521 25.0748L8.03894 20.6624C7.71259 19.6677 7.53033 18.606 7.53033 17.5Z" fill="#FBBC05"/>
<path fill-rule="evenodd" clip-rule="evenodd" d="M17.6558 7.38888C20.0704 7.38888 22.2513 8.24443 23.9648 9.64443L28.9496 4.66666C25.912 2.02221 22.0176 0.388878 17.6558 0.388878C10.8842 0.388878 5.06443 4.26143 2.27759 9.91977L8.04443 14.3235C9.37321 10.29 13.1609 7.38888 17.6558 7.38888Z" fill="#EB4335"/>
<path fill-rule="evenodd" clip-rule="evenodd" d="M17.6558 27.6111C13.1609 27.6111 9.37321 24.71 8.04443 20.6764L2.27759 25.0794C5.06443 30.7385 10.8842 34.6111 17.6558 34.6111C21.8353 34.6111 25.8255 33.1271 28.8203 30.3465L23.3464 26.1147C21.8018 27.0877 19.857 27.6111 17.6558 27.6111Z" fill="#34A853"/>
<path fill-rule="evenodd" clip-rule="evenodd" d="M34.0123 17.5C34.0123 16.4889 33.8565 15.4 33.6229 14.3889H17.6558V21H26.8466C26.387 23.254 25.1362 24.9869 23.3463 26.1147L28.8203 30.3465C31.9662 27.4268 34.0123 23.0774 34.0123 17.5Z" fill="#4285F4"/>
</g>
<defs>
<clipPath id="clip0_21_207">
<rect width="35" height="35" fill="white"/>
</clipPath>
</defs>
</svg>
