<svg width="60" height="60" viewBox="0 0 60 60" fill="none" xmlns="http://www.w3.org/2000/svg">
<path d="M50.8257 10.5695C46.9418 8.75233 42.7889 7.43168 38.4472 6.67969C37.914 7.64371 37.2911 8.94035 36.8616 9.97182C32.2462 9.27773 27.6734 9.27773 23.1429 9.97182C22.7135 8.94035 22.0764 7.64371 21.5384 6.67969C17.192 7.43168 13.0344 8.75719 9.15048 10.5791C1.31661 22.4172 -0.807028 33.9611 0.254792 45.3412C5.45063 49.2213 10.486 51.5784 15.4364 53.1208C16.6587 51.4385 17.7488 49.6503 18.6879 47.7657C16.8994 47.0861 15.1863 46.2474 13.5677 45.2737C13.9971 44.9556 14.4171 44.623 14.823 44.2808C24.6955 48.8984 35.4222 48.8984 45.1768 44.2808C45.5874 44.623 46.0074 44.9556 46.4321 45.2737C44.8087 46.2522 43.091 47.0908 41.3024 47.7705C42.2415 49.6503 43.3269 51.4434 44.5539 53.1255C49.5091 51.5831 54.5491 49.2262 59.745 45.3412C60.9909 32.1488 57.6167 20.7108 50.8257 10.5695ZM20.0329 38.3426C17.0693 38.3426 14.6389 35.5758 14.6389 32.2066C14.6389 28.8374 17.0174 26.0659 20.0329 26.0659C23.0486 26.0659 25.4789 28.8326 25.427 32.2066C25.4317 35.5758 23.0486 38.3426 20.0329 38.3426ZM39.9669 38.3426C37.0032 38.3426 34.5728 35.5758 34.5728 32.2066C34.5728 28.8374 36.9512 26.0659 39.9669 26.0659C42.9824 26.0659 45.4128 28.8326 45.3609 32.2066C45.3609 35.5758 42.9824 38.3426 39.9669 38.3426Z" fill="#5865F2"/>
</svg>
