<svg width="40" height="40" viewBox="0 0 40 40" fill="none" xmlns="http://www.w3.org/2000/svg">
<path d="M21.2707 13.5341C21.6852 13.0169 21.602 12.2617 21.0848 11.8472C20.5676 11.4328 19.8124 11.516 19.398 12.0331L21.2707 13.5341ZM10.8976 24.5581L11.8064 25.3416C11.8158 25.3307 11.8249 25.3197 11.8339 25.3085L10.8976 24.5581ZM10.624 25.2269L9.42629 25.1486L9.42523 25.1714L10.624 25.2269ZM10.4 30.0637L9.20123 30.0082C9.19848 30.0677 9.20016 30.1274 9.20629 30.1867L10.4 30.0637ZM11.6592 31.1629L11.6984 32.3622C11.7784 32.3595 11.858 32.349 11.9359 32.3304L11.6592 31.1629ZM16.4592 30.0253L16.736 31.193L16.7545 31.1883L16.4592 30.0253ZM17.0752 29.6349L18.0009 30.3986L18.0113 30.3856L17.0752 29.6349ZM27.6753 18.3344C28.0899 17.8173 28.0068 17.0621 27.4899 16.6475C26.9729 16.2328 26.2176 16.3159 25.803 16.833L27.6753 18.3344ZM19.403 12.0328C18.9884 12.5498 19.0713 13.3051 19.5884 13.7197C20.1054 14.1344 20.8606 14.0514 21.2753 13.5344L19.403 12.0328ZM22.88 9.61561L23.8161 10.3664C23.8318 10.3467 23.847 10.3266 23.8616 10.306L22.88 9.61561ZM25.4864 9.10361L26.254 8.18131C26.2158 8.1495 26.1756 8.12011 26.1339 8.09327L25.4864 9.10361ZM29.0656 12.0828L29.9148 11.2351C29.8888 11.209 29.8616 11.1841 29.8332 11.1605L29.0656 12.0828ZM29.0512 14.7036L28.2112 13.8466C28.1772 13.8799 28.1452 13.9153 28.1153 13.9524L29.0512 14.7036ZM25.803 16.833C25.3881 17.3498 25.4712 18.1045 25.988 18.5194C26.5048 18.9342 27.2604 18.8512 27.6753 18.3344L25.803 16.833ZM21.5259 12.6058C21.4276 11.9504 20.8168 11.4987 20.1614 11.5969C19.5059 11.6951 19.0542 12.306 19.1524 12.9615L21.5259 12.6058ZM26.9008 18.7726C27.5574 18.6835 28.0174 18.0787 27.9283 17.4221C27.839 16.7653 27.2344 16.3053 26.5776 16.3945L26.9008 18.7726ZM19.398 12.0331L9.96118 23.8075L11.8339 25.3085L21.2707 13.5341L19.398 12.0331ZM9.9887 23.7744C9.65693 24.1592 9.45936 24.6416 9.42629 25.1486L11.8214 25.305C11.8205 25.3184 11.8153 25.3314 11.8064 25.3416L9.9887 23.7744ZM9.42523 25.1714L9.20123 30.0082L11.5987 30.1192L11.8227 25.2824L9.42523 25.1714ZM9.20629 30.1867C9.33696 31.4538 10.4254 32.4038 11.6984 32.3622L11.6199 29.9635C11.6148 29.9637 11.6123 29.9629 11.6107 29.9622C11.6084 29.9614 11.6053 29.9598 11.6023 29.9571C11.5992 29.9544 11.5972 29.9517 11.596 29.9496C11.5952 29.948 11.5941 29.9456 11.5936 29.9405L9.20629 30.1867ZM11.9359 32.3304L16.736 31.193L16.1824 28.8576L11.3824 29.9952L11.9359 32.3304ZM16.7545 31.1883C17.2433 31.0642 17.68 30.7877 18.0009 30.3986L16.1494 28.8712C16.1532 28.8667 16.1582 28.8635 16.1638 28.8621L16.7545 31.1883ZM18.0113 30.3856L27.6753 18.3344L25.803 16.833L16.139 28.8842L18.0113 30.3856ZM21.2753 13.5344L23.8161 10.3664L21.9438 8.86483L19.403 12.0328L21.2753 13.5344ZM23.8616 10.306C24.0833 9.99057 24.5142 9.90591 24.8388 10.114L26.1339 8.09327C24.727 7.19174 22.8596 7.55855 21.8984 8.92527L23.8616 10.306ZM24.7187 10.0259L28.2979 13.0051L29.8332 11.1605L26.254 8.18131L24.7187 10.0259ZM28.2163 12.9306C28.3377 13.0523 28.4056 13.2176 28.4046 13.3896L30.8046 13.4028C30.8091 12.5905 30.4888 11.81 29.9148 11.2351L28.2163 12.9306ZM28.4046 13.3896C28.4038 13.5617 28.334 13.7262 28.2112 13.8466L29.8912 15.5607C30.4713 14.992 30.8001 14.2151 30.8046 13.4028L28.4046 13.3896ZM28.1153 13.9524L25.803 16.833L27.6753 18.3344L29.987 15.4548L28.1153 13.9524ZM19.1524 12.9615C19.7113 16.6915 23.1633 19.2805 26.9008 18.7726L26.5776 16.3945C24.1409 16.7256 21.8904 15.0377 21.5259 12.6058L19.1524 12.9615Z" fill="black"/>
</svg>
