<svg width="50" height="25" viewBox="0 0 50 25" fill="none" xmlns="http://www.w3.org/2000/svg">
<path d="M2.0105 8.64769L16.0664 0.515469C17.9369 -0.55456 20.3954 0.0874588 21.5177 2.01351C22.64 3.93956 21.9452 6.34713 20.0212 7.47066L11.9512 12.1788L2.0105 8.64769Z" fill="#EA4335"/>
<path d="M16.0511 23.6854L1.99524 15.5532C0.0712398 14.4831 -0.570066 12.0221 0.552265 10.096C1.62115 8.22345 4.07957 7.52793 6.00356 8.65146L20.006 16.7837C21.93 17.8537 22.6248 20.3148 21.5024 22.2408C20.7542 23.5249 19.4181 24.2204 18.0285 24.2204C17.3338 24.2204 16.6925 24.0599 16.0511 23.6854Z" fill="#4285F4"/>
<path d="M28.4976 22.2354C27.4287 20.3093 28.07 17.8483 29.994 16.7783L38.2244 11.9631L48.0047 15.5477L34.0024 23.6799C33.361 24.0545 32.6662 24.215 31.9715 24.215C30.5819 24.215 29.2458 23.5194 28.4976 22.2354V22.2354Z" fill="#FBBC04"/>
<path d="M43.9964 15.5494L29.994 7.47066C28.07 6.34713 27.4287 3.93956 28.4976 2.01351C29.6199 0.0874588 32.0784 -0.55456 34.0024 0.515469L48.0047 8.64769C49.9287 9.77122 50.57 12.1788 49.4477 14.1048C48.7529 15.3889 47.3634 16.0844 46.0273 16.0844C45.3325 16.0844 44.6377 15.9239 43.9964 15.5494V15.5494Z" fill="#0F9D58"/>
</svg>
