<svg width="45" height="45" viewBox="0 0 45 45" fill="none" xmlns="http://www.w3.org/2000/svg">
<path fill-rule="evenodd" clip-rule="evenodd" d="M26.9584 26.1H18.0412C15.4168 26.2303 13.0916 27.8334 12.0365 30.24C10.7639 32.7384 13.3037 35.1 16.2575 35.1H28.7422C31.6978 35.1 34.2376 32.7384 32.9632 30.24C31.9083 27.8334 29.583 26.2303 26.9584 26.1Z" stroke="black" stroke-width="3" stroke-linecap="round" stroke-linejoin="round"/>
<path fill-rule="evenodd" clip-rule="evenodd" d="M27.8998 15.3C27.8998 18.2823 25.4823 20.7 22.4998 20.7C19.5176 20.7 17.0999 18.2823 17.0999 15.3C17.0999 12.3177 19.5176 9.89999 22.4998 9.89999C23.9321 9.89999 25.3057 10.4689 26.3184 11.4816C27.331 12.4943 27.8998 13.8678 27.8998 15.3Z" stroke="black" stroke-width="3" stroke-linecap="round" stroke-linejoin="round"/>
</svg>
