<svg width="35" height="35" viewBox="0 0 35 35" fill="none" xmlns="http://www.w3.org/2000/svg">
<path fill-rule="evenodd" clip-rule="evenodd" d="M22.8741 5.58752C24.1499 4.10879 25.01 2.04921 24.7746 0C22.936 0.07 20.7116 1.17451 19.3933 2.65149C18.2094 3.96222 17.176 6.05657 17.4538 8.06555C19.5047 8.21778 21.5982 7.06799 22.8741 5.58752ZM27.4732 18.5938C27.5245 23.8909 32.3219 25.653 32.375 25.6758C32.3361 25.8 31.6088 28.1866 29.848 30.6541C28.3244 32.7855 26.7441 34.9084 24.2543 34.9539C21.8088 34.9976 21.0213 33.5645 18.2236 33.5645C15.4276 33.5645 14.5534 34.9082 12.2388 34.9974C9.83569 35.0832 8.00416 32.6914 6.46992 30.5669C3.33066 26.2217 0.932864 18.2877 4.15352 12.9327C5.75324 10.2745 8.61113 8.58863 11.715 8.54663C14.0739 8.50288 16.3018 10.0676 17.744 10.0676C19.1862 10.0676 21.8937 8.18639 24.7392 8.46289C25.9301 8.51014 29.2747 8.92299 31.4212 11.9347C31.2478 12.0379 27.4308 14.1663 27.4732 18.5938Z" fill="white"/>
</svg>
