<svg width="45" height="45" viewBox="0 0 45 45" fill="none" xmlns="http://www.w3.org/2000/svg">
<path fill-rule="evenodd" clip-rule="evenodd" d="M9.90002 18.9V29.7C9.90002 33.6764 13.1236 36.9 17.1 36.9H27.9C31.8764 36.9 35.1 33.6764 35.1 29.7V18.9C35.1 14.9236 31.8764 11.7 27.9 11.7H17.1C13.1236 11.7 9.90002 14.9236 9.90002 18.9Z" stroke="black" stroke-width="3" stroke-linecap="round" stroke-linejoin="round"/>
<path d="M24.75 13.5C24.75 14.2456 25.3544 14.85 26.1 14.85C26.8456 14.85 27.45 14.2456 27.45 13.5H24.75ZM27.45 8.1C27.45 7.35442 26.8456 6.75 26.1 6.75C25.3544 6.75 24.75 7.35442 24.75 8.1H27.45ZM17.55 13.5C17.55 14.2456 18.1544 14.85 18.9 14.85C19.6456 14.85 20.25 14.2456 20.25 13.5H17.55ZM20.25 8.1C20.25 7.35442 19.6456 6.75 18.9 6.75C18.1544 6.75 17.55 7.35442 17.55 8.1H20.25ZM27.9 20.25C28.6456 20.25 29.25 19.6456 29.25 18.9C29.25 18.1544 28.6456 17.55 27.9 17.55V20.25ZM17.1 17.55C16.3544 17.55 15.75 18.1544 15.75 18.9C15.75 19.6456 16.3544 20.25 17.1 20.25V17.55ZM27.9 25.65C28.6456 25.65 29.25 25.0456 29.25 24.3C29.25 23.5544 28.6456 22.95 27.9 22.95V25.65ZM17.1 22.95C16.3544 22.95 15.75 23.5544 15.75 24.3C15.75 25.0456 16.3544 25.65 17.1 25.65V22.95ZM22.5 31.05C23.2456 31.05 23.85 30.4456 23.85 29.7C23.85 28.9544 23.2456 28.35 22.5 28.35V31.05ZM17.1 28.35C16.3544 28.35 15.75 28.9544 15.75 29.7C15.75 30.4456 16.3544 31.05 17.1 31.05V28.35ZM27.45 13.5V8.1H24.75V13.5H27.45ZM20.25 13.5V8.1H17.55V13.5H20.25ZM27.9 17.55H17.1V20.25H27.9V17.55ZM27.9 22.95H17.1V25.65H27.9V22.95ZM22.5 28.35H17.1V31.05H22.5V28.35Z" fill="black"/>
</svg>
