<svg width="60" height="112" viewBox="0 0 60 112" fill="none" xmlns="http://www.w3.org/2000/svg">
<path d="M41.7019 31.3659L14.0478 23.3357M41.7019 31.3659L41.7079 30.531L12.2371 3.19837L13.2034 23.0905L14.0478 23.3357M41.7019 31.3659L41.676 34.9319M14.0478 23.3357L14.3081 23.9976M41.3293 82.7383L24.0869 104.833L5.18347 108.02M41.3293 82.7383L41.3496 79.9355M41.3293 82.7383L42.7571 82.7487L54.6539 56.2862L41.676 34.9319M41.3496 79.9355L7.54536 81.3298L26.6094 58.5685M41.3496 79.9355L41.3703 77.0798M41.3703 77.0798L29.0543 61.4949L27.49 57.5171M41.3703 77.0798L41.676 34.9319M27.49 57.5171L26.6094 58.5685M27.49 57.5171L14.3081 23.9976M5.5992 50.6947L26.6094 58.5685M5.8539 8.28202L12.2352 3.46279M5.82164 20.0225L13.2006 23.4788M14.3081 23.9976L13.2006 23.4788M5.73113 32.5029L13.2006 23.4788" stroke="#202124" stroke-width="2"/>
<ellipse cx="12.6429" cy="5.58119" rx="4.49519" ry="4.49519" transform="rotate(90.4155 12.6429 5.58119)" fill="#36BD57"/>
<ellipse cx="13.6726" cy="23.9931" rx="4.49519" ry="4.49519" transform="rotate(90.4155 13.6726 23.9931)" fill="#FF4F3E"/>
<ellipse cx="27.1621" cy="59.9476" rx="4.49519" ry="4.49519" transform="rotate(90.4155 27.1621 59.9476)" fill="#36BD57"/>
<ellipse cx="54.5844" cy="56.2329" rx="4.49519" ry="4.49519" transform="rotate(90.4155 54.5844 56.2329)" fill="#36BD57"/>
<ellipse cx="8.07493" cy="81.1751" rx="4.49519" ry="4.49519" transform="rotate(90.4155 8.07493 81.1751)" fill="#FF4F3E"/>
<ellipse cx="22.3605" cy="102.169" rx="8.99039" ry="8.99039" transform="rotate(90.4155 22.3605 102.169)" fill="#FFBB00"/>
<ellipse cx="9.41957" cy="51.8542" rx="8.99039" ry="8.99039" transform="rotate(90.4155 9.41957 51.8542)" fill="#3D8AFF"/>
<circle cx="43.4505" cy="81.9076" r="8.67308" transform="rotate(90.4155 43.4505 81.9076)" fill="#FFBB00"/>
<circle cx="41.3884" cy="30.8048" r="11.1058" transform="rotate(90.4155 41.3884 30.8048)" fill="#3D8AFF"/>
</svg>
