<svg width="252" height="102" viewBox="0 0 252 102" fill="none" xmlns="http://www.w3.org/2000/svg">
<path d="M195.601 101.352C194.369 101.352 193.24 100.978 192.213 100.23C191.187 99.482 190.483 98.4333 190.101 97.084L191.883 96.358C192.133 97.2967 192.595 98.0667 193.269 98.668C193.944 99.2693 194.736 99.57 195.645 99.57C196.555 99.57 197.325 99.328 197.955 98.844C198.586 98.3453 198.901 97.6707 198.901 96.82C198.901 96.0867 198.63 95.4853 198.087 95.016C197.559 94.532 196.687 94.0847 195.469 93.674L194.479 93.322C193.365 92.926 192.455 92.4053 191.751 91.76C191.047 91.1147 190.695 90.22 190.695 89.076C190.695 88.328 190.901 87.6387 191.311 87.008C191.722 86.3627 192.294 85.8493 193.027 85.468C193.761 85.0867 194.582 84.896 195.491 84.896C196.401 84.896 197.193 85.0647 197.867 85.402C198.542 85.7393 199.077 86.15 199.473 86.634C199.884 87.118 200.17 87.5947 200.331 88.064L198.571 88.812C198.425 88.2693 198.087 87.778 197.559 87.338C197.046 86.898 196.364 86.678 195.513 86.678C194.707 86.678 194.017 86.9053 193.445 87.36C192.873 87.8147 192.587 88.3867 192.587 89.076C192.587 89.692 192.829 90.198 193.313 90.594C193.797 90.9753 194.531 91.3347 195.513 91.672L196.547 92.024C197.882 92.508 198.923 93.1167 199.671 93.85C200.419 94.5687 200.793 95.5513 200.793 96.798C200.793 97.81 200.529 98.6607 200.001 99.35C199.488 100.039 198.835 100.545 198.043 100.868C197.251 101.191 196.437 101.352 195.601 101.352ZM206.907 101.352C205.558 101.352 204.524 100.956 203.805 100.164C203.101 99.372 202.749 98.2647 202.749 96.842V89.78H204.619V96.556C204.619 97.6267 204.861 98.4113 205.345 98.91C205.829 99.4087 206.482 99.658 207.303 99.658C207.934 99.658 208.491 99.4893 208.975 99.152C209.474 98.8147 209.855 98.3747 210.119 97.832C210.398 97.2893 210.537 96.7173 210.537 96.116V89.78H212.407V101H210.625V99.372H210.537C210.229 99.9293 209.738 100.399 209.063 100.78C208.389 101.161 207.67 101.352 206.907 101.352ZM220.144 101.352C219.058 101.352 218.083 101.095 217.218 100.582C216.352 100.054 215.678 99.3427 215.194 98.448C214.71 97.5387 214.468 96.5193 214.468 95.39C214.468 94.2607 214.71 93.2413 215.194 92.332C215.678 91.4227 216.352 90.7113 217.218 90.198C218.083 89.6847 219.058 89.428 220.144 89.428C221.361 89.428 222.38 89.714 223.202 90.286C224.038 90.8433 224.632 91.5913 224.984 92.53L223.29 93.234C223.011 92.5447 222.593 92.024 222.036 91.672C221.493 91.3053 220.833 91.122 220.056 91.122C219.396 91.122 218.78 91.3053 218.208 91.672C217.636 92.024 217.174 92.5227 216.822 93.168C216.484 93.8133 216.316 94.554 216.316 95.39C216.316 96.226 216.484 96.9667 216.822 97.612C217.174 98.2573 217.636 98.7633 218.208 99.13C218.78 99.482 219.396 99.658 220.056 99.658C220.848 99.658 221.53 99.4747 222.102 99.108C222.674 98.7413 223.099 98.2207 223.378 97.546L225.05 98.25C224.668 99.174 224.052 99.922 223.202 100.494C222.366 101.066 221.346 101.352 220.144 101.352ZM226.964 89.78H228.746V91.584H228.834C229.054 90.968 229.479 90.462 230.11 90.066C230.741 89.6553 231.401 89.45 232.09 89.45C232.603 89.45 233.043 89.5233 233.41 89.67V91.694C232.941 91.4593 232.413 91.342 231.826 91.342C231.283 91.342 230.785 91.496 230.33 91.804C229.875 92.112 229.509 92.53 229.23 93.058C228.966 93.5713 228.834 94.1287 228.834 94.73V101H226.964V89.78ZM239.542 101.352C238.471 101.352 237.511 101.095 236.66 100.582C235.809 100.069 235.142 99.3647 234.658 98.47C234.189 97.5607 233.954 96.5413 233.954 95.412C233.954 94.3267 234.174 93.3293 234.614 92.42C235.069 91.5107 235.707 90.7847 236.528 90.242C237.349 89.6993 238.303 89.428 239.388 89.428C240.488 89.428 241.441 89.6773 242.248 90.176C243.055 90.66 243.671 91.3347 244.096 92.2C244.536 93.0653 244.756 94.0553 244.756 95.17C244.756 95.39 244.734 95.5807 244.69 95.742H235.824C235.868 96.5927 236.073 97.3113 236.44 97.898C236.807 98.4847 237.269 98.9247 237.826 99.218C238.398 99.5113 238.992 99.658 239.608 99.658C241.045 99.658 242.153 98.9833 242.93 97.634L244.514 98.404C244.03 99.3133 243.37 100.032 242.534 100.56C241.713 101.088 240.715 101.352 239.542 101.352ZM242.776 94.202C242.747 93.7327 242.615 93.2633 242.38 92.794C242.145 92.3247 241.771 91.9287 241.258 91.606C240.759 91.2833 240.129 91.122 239.366 91.122C238.486 91.122 237.738 91.408 237.122 91.98C236.521 92.5373 236.125 93.278 235.934 94.202H242.776Z" fill="white"/>
<path d="M34.098 71.9884L27.1797 75.7425L24.954 70.8621C22.6479 73.7045 19.2423 75.7425 14.8178 75.7425C6.39773 75.7425 2 68.7705 2 57.9907C2 46.2724 7.20219 39.9708 15.4881 39.9708C19.3764 39.9708 22.4065 41.4188 24.364 44.1271V26.858H31.4701V66.7325L34.098 71.9884ZM24.364 67.242V48.8735C22.5138 47.3718 20.2077 46.4333 17.7943 46.4333C12.5385 46.4333 9.42787 50.4556 9.42787 58.0175C9.42787 65.2577 12.3239 69.28 17.6602 69.28C20.02 69.28 22.4602 68.5023 24.364 67.242Z" fill="white"/>
<path d="M69.3603 58.6343H46.0577C46.5404 64.6141 51.2063 68.6365 58.5805 68.6365C62.3347 68.6365 66.4106 67.8588 69.1726 66.4108L66.9469 73.7046C64.6408 74.9649 60.7526 75.7425 56.3012 75.7425C45.7091 75.7425 38.7371 68.5828 38.7371 57.6421C38.7371 46.6478 45.3873 39.944 55.9794 39.944C64.7212 39.944 70.2452 44.9316 70.2452 53.0299C70.2184 54.8801 69.8966 57.0522 69.3603 58.6343ZM46.4868 53.7003H63.2732C62.9514 48.5785 60.5112 46.1383 55.9794 46.1383C51.0186 46.1383 47.5862 48.9539 46.4868 53.7003Z" fill="white"/>
<path d="M86.683 74.8844L73.2485 40.802H81.0786L89.8204 64.6141L90.8126 67.5638H91.0808L92.0729 64.6141L100.761 40.802H108.457L95.1031 74.8844H86.683Z" fill="white"/>
<path d="M131.733 40.8825H147.125L146.133 46.3529H130.741L125.351 77.0029C123.849 85.557 118.111 88.7749 110.093 88.7749C106.419 88.7749 104.703 88.2386 102.853 87.8631L102.719 82.3392C104.569 82.6609 106.741 82.8755 109.771 82.8755C114.571 82.8755 117.735 80.9716 118.459 76.9493L123.849 46.3529H113.123L114.115 40.8825H124.841L125.378 37.7183C126.879 29.2178 132.537 26 140.502 26C144.256 26 146.16 26.5363 147.795 26.9117L147.929 32.5698C146.079 32.1139 143.907 31.8994 140.877 31.8994C136.131 31.8994 132.993 33.8033 132.269 37.8256L131.733 40.8825Z" fill="white"/>
<path d="M178.928 58.6343H155.625C156.081 64.6141 160.747 68.6365 168.121 68.6365C171.876 68.6365 175.951 67.8588 178.713 66.4108L176.488 73.7046C174.182 74.9649 170.293 75.7425 165.842 75.7425C155.25 75.7425 148.278 68.5828 148.278 57.6421C148.278 46.6478 154.928 39.944 165.52 39.944C174.262 39.944 179.786 44.9316 179.786 53.0299C179.759 54.8801 179.437 57.0522 178.928 58.6343ZM156.028 53.7003H172.814C172.492 48.5785 170.052 46.1383 165.52 46.1383C160.559 46.1383 157.127 48.9539 156.028 53.7003Z" fill="white"/>
<path d="M186.544 72.8465L186.088 65.2041C189.118 67.3225 194.642 69.146 200.434 69.146C204.832 69.146 207.996 67.7516 207.996 64.6678C207.996 58.2321 186.812 64.212 186.812 51.0456C186.812 44.9317 191.424 39.7295 202.418 39.7295C209.122 39.7295 214.271 41.3652 214.271 45.4412C214.271 46.7015 213.734 47.7473 213.225 48.7395C210.329 47.3451 205.797 46.3797 201.962 46.3797C196.707 46.3797 193.945 48.3641 193.945 50.5361C193.945 56.2478 215.397 51.2601 215.397 64.0779C215.397 71.2376 209.068 75.7158 199.683 75.7158C193.247 75.7426 188.447 73.7046 186.544 72.8465Z" fill="white"/>
<path d="M252 67.6442L250.552 74.2944C248.836 75.0184 245.43 75.7425 242.266 75.7425C233.766 75.7425 230.172 71.3447 230.172 65.0967V46.8086H220.492V40.8288H230.172V31.4702H237.278V40.802H251.035V46.7818H237.278V62.8979C237.278 67.2956 239.585 69.2799 243.607 69.2799C245.886 69.2799 250.096 68.7704 252 67.6442Z" fill="white"/>
<path d="M49.7119 12.8297V9.61572H47.4224V8.28821H51.0975V13.4585C50.5352 13.9243 49.9327 14.2504 49.2901 14.4367C48.6474 14.6696 47.9445 14.786 47.1813 14.786C45.5747 14.786 44.3096 14.2504 43.3858 13.179C42.4619 12.0611 42 10.524 42 8.56768C42 6.56477 42.4619 5.02765 43.3858 3.95632C44.3096 2.83842 45.5747 2.27947 47.1813 2.27947C47.8642 2.27947 48.5069 2.37263 49.1094 2.55894C49.7521 2.74526 50.3143 3.04804 50.7963 3.46725V5.14411C50.2741 4.63173 49.7319 4.25909 49.1696 4.0262C48.5671 3.74672 47.9446 3.60698 47.302 3.60698C46.0568 3.60698 45.1128 4.02621 44.4701 4.86463C43.8275 5.70306 43.5062 6.93741 43.5062 8.56768C43.5062 10.198 43.8275 11.409 44.4701 12.2009C45.1128 13.0393 46.0568 13.4585 47.302 13.4585C47.8241 13.4585 48.2659 13.4119 48.6274 13.3188C49.0291 13.2256 49.3906 13.0626 49.7119 12.8297ZM56.5199 6.54149C55.797 6.54149 55.2347 6.86754 54.8331 7.51965C54.4716 8.12518 54.2908 8.96361 54.2908 10.0349C54.2908 11.1528 54.4716 12.0146 54.8331 12.6201C55.2347 13.2256 55.797 13.5284 56.5199 13.5284C57.2028 13.5284 57.7451 13.2256 58.1468 12.6201C58.5083 11.968 58.689 11.1063 58.689 10.0349C58.689 8.96361 58.5083 8.12518 58.1468 7.51965C57.7451 6.86754 57.2028 6.54149 56.5199 6.54149ZM56.5199 5.28385C57.6044 5.28385 58.468 5.70306 59.1107 6.54149C59.7533 7.37991 60.0747 8.5444 60.0747 10.0349C60.0747 11.5255 59.7533 12.69 59.1107 13.5284C58.468 14.3668 57.6044 14.786 56.5199 14.786C55.3953 14.786 54.5117 14.3668 53.869 13.5284C53.2264 12.69 52.905 11.5255 52.905 10.0349C52.905 8.5444 53.2264 7.37991 53.869 6.54149C54.5117 5.70306 55.3953 5.28385 56.5199 5.28385ZM65.0754 6.54149C64.3926 6.54149 63.8503 6.86754 63.4486 7.51965C63.0469 8.12518 62.8461 8.96361 62.8461 10.0349C62.8461 11.1528 63.0469 12.0146 63.4486 12.6201C63.8503 13.2256 64.3926 13.5284 65.0754 13.5284C65.7583 13.5284 66.3005 13.2256 66.7021 12.6201C67.1038 11.968 67.3046 11.1063 67.3046 10.0349C67.3046 8.96361 67.1038 8.12518 66.7021 7.51965C66.3005 6.86754 65.7583 6.54149 65.0754 6.54149ZM65.0754 5.28385C66.2001 5.28385 67.0837 5.70306 67.7263 6.54149C68.369 7.37991 68.6904 8.5444 68.6904 10.0349C68.6904 11.5255 68.369 12.69 67.7263 13.5284C67.0837 14.3668 66.2001 14.786 65.0754 14.786C63.9508 14.786 63.067 14.3668 62.4244 13.5284C61.8219 12.69 61.5207 11.5255 61.5207 10.0349C61.5207 8.5444 61.8219 7.37991 62.4244 6.54149C63.067 5.70306 63.9508 5.28385 65.0754 5.28385ZM75.7997 9.96506C75.7997 8.89374 75.5988 8.05531 75.1972 7.44977C74.8357 6.84424 74.3136 6.54149 73.6308 6.54149C72.9078 6.54149 72.3656 6.84424 72.0041 7.44977C71.6024 8.05531 71.4016 8.89374 71.4016 9.96506C71.4016 11.0364 71.6024 11.8515 72.0041 12.4105C72.3656 13.016 72.9078 13.3188 73.6308 13.3188C74.3136 13.3188 74.8357 13.016 75.1972 12.4105C75.5988 11.8515 75.7997 11.0364 75.7997 9.96506ZM77.0649 5.49345V13.4585C77.0649 14.9956 76.7637 16.1368 76.1612 16.8821C75.5989 17.6274 74.6952 18 73.45 18C73.0082 18 72.5864 17.9767 72.1847 17.9301C71.7831 17.837 71.4015 17.6972 71.04 17.5109V16.1135C71.4015 16.3464 71.7631 16.5095 72.1246 16.6026C72.5262 16.7424 72.9077 16.8122 73.2692 16.8122C74.1127 16.8122 74.7353 16.556 75.137 16.0437C75.5788 15.5313 75.7997 14.7627 75.7997 13.738V12.9694C75.5185 13.5284 75.1771 13.9243 74.7755 14.1572C74.3738 14.4367 73.8717 14.5764 73.2692 14.5764C72.3454 14.5764 71.5822 14.1572 70.9797 13.3188C70.3772 12.4804 70.076 11.3624 70.076 9.96506C70.076 8.56768 70.3772 7.42649 70.9797 6.54149C71.5822 5.70306 72.3454 5.28385 73.2692 5.28385C73.8717 5.28385 74.3738 5.42357 74.7755 5.70305C75.1771 5.98253 75.5185 6.37846 75.7997 6.89083V5.49345H77.0649ZM79.5352 14.5764V2H80.8607V14.5764H79.5352ZM90.0185 9.68559V10.3843H84.1141C84.1542 11.409 84.4153 12.2009 84.8973 12.7598C85.3793 13.2722 86.0421 13.5284 86.8856 13.5284C87.4077 13.5284 87.8897 13.4585 88.3315 13.3188C88.8135 13.1791 89.2754 12.9694 89.7173 12.69V14.0873C89.2754 14.3202 88.8135 14.5066 88.3315 14.6463C87.8495 14.7395 87.3474 14.786 86.8253 14.786C85.5801 14.786 84.5961 14.3668 83.8731 13.5284C83.1501 12.69 82.7886 11.5488 82.7886 10.1048C82.7886 8.66085 83.13 7.49637 83.8128 6.61136C84.4956 5.72635 85.4195 5.28385 86.5843 5.28385C87.6688 5.28385 88.5123 5.67976 89.1148 6.47161C89.7173 7.26346 90.0185 8.33479 90.0185 9.68559ZM84.1744 9.26637H88.7532C88.7131 8.42795 88.5122 7.77584 88.1507 7.31005C87.7491 6.79768 87.247 6.54149 86.6445 6.54149C85.9215 6.54149 85.3392 6.77438 84.8973 7.24018C84.4555 7.70597 84.2145 8.38137 84.1744 9.26637ZM99.5379 3.8166H97.8509V13.2489H99.5379C100.984 13.2489 102.028 12.8763 102.671 12.131C103.354 11.3392 103.695 10.1281 103.695 8.49781C103.695 6.91411 103.354 5.74963 102.671 5.00436C102.028 4.21251 100.984 3.8166 99.5379 3.8166ZM96.405 14.5764V2.48909H99.3571C101.365 2.48909 102.832 2.97816 103.755 3.95632C104.719 4.93449 105.201 6.44832 105.201 8.49781C105.201 10.5939 104.719 12.131 103.755 13.1092C102.791 14.0873 101.325 14.5764 99.3571 14.5764H96.405ZM113.877 9.68559V10.3843H107.973C108.013 11.409 108.274 12.2009 108.756 12.7598C109.238 13.2722 109.901 13.5284 110.744 13.5284C111.226 13.5284 111.708 13.4585 112.19 13.3188C112.632 13.1791 113.094 12.9694 113.576 12.69V14.0873C113.094 14.3202 112.612 14.5066 112.13 14.6463C111.648 14.7395 111.166 14.786 110.684 14.786C109.439 14.786 108.435 14.3668 107.672 13.5284C106.949 12.69 106.587 11.5488 106.587 10.1048C106.587 8.66085 106.949 7.49637 107.672 6.61136C108.354 5.72635 109.278 5.28385 110.443 5.28385C111.487 5.28385 112.311 5.67976 112.913 6.47161C113.556 7.26346 113.877 8.33479 113.877 9.68559ZM107.973 9.26637H112.552C112.552 8.42795 112.351 7.77584 111.949 7.31005C111.588 6.79768 111.086 6.54149 110.443 6.54149C109.72 6.54149 109.158 6.77438 108.756 7.24018C108.314 7.70597 108.053 8.38137 107.973 9.26637ZM117.793 14.5764L114.901 5.49345H116.227L118.697 13.1092L121.107 5.49345H122.493L119.541 14.5764H117.793ZM130.807 9.68559V10.3843H124.903C124.943 11.409 125.204 12.2009 125.686 12.7598C126.168 13.2722 126.831 13.5284 127.674 13.5284C128.156 13.5284 128.638 13.4585 129.12 13.3188C129.562 13.1791 130.024 12.9694 130.506 12.69V14.0873C130.024 14.3202 129.542 14.5066 129.06 14.6463C128.578 14.7395 128.096 14.786 127.614 14.786C126.369 14.786 125.385 14.3668 124.662 13.5284C123.939 12.69 123.577 11.5488 123.577 10.1048C123.577 8.66085 123.919 7.49637 124.601 6.61136C125.284 5.72635 126.208 5.28385 127.373 5.28385C128.417 5.28385 129.261 5.67976 129.903 6.47161C130.506 7.26346 130.807 8.33479 130.807 9.68559ZM124.963 9.26637H129.542C129.502 8.42795 129.301 7.77584 128.939 7.31005C128.538 6.79768 128.016 6.54149 127.373 6.54149C126.69 6.54149 126.128 6.77438 125.686 7.24018C125.244 7.70597 125.003 8.38137 124.963 9.26637ZM132.735 14.5764V2H134.061V14.5764H132.735ZM139.543 6.54149C138.86 6.54149 138.318 6.86754 137.917 7.51965C137.515 8.12518 137.314 8.96361 137.314 10.0349C137.314 11.1528 137.515 12.0146 137.917 12.6201C138.318 13.2256 138.86 13.5284 139.543 13.5284C140.226 13.5284 140.768 13.2256 141.17 12.6201C141.572 11.968 141.772 11.1063 141.772 10.0349C141.772 8.96361 141.572 8.12518 141.17 7.51965C140.768 6.86754 140.226 6.54149 139.543 6.54149ZM139.543 5.28385C140.668 5.28385 141.552 5.70306 142.194 6.54149C142.837 7.37991 143.158 8.5444 143.158 10.0349C143.158 11.5255 142.837 12.69 142.194 13.5284C141.552 14.3668 140.668 14.786 139.543 14.786C138.419 14.786 137.555 14.3668 136.953 13.5284C136.31 12.69 135.989 11.5255 135.989 10.0349C135.989 8.5444 136.31 7.37991 136.953 6.54149C137.555 5.70306 138.419 5.28385 139.543 5.28385ZM146.351 13.2489V18H145.086V5.49345H146.351V6.89083C146.633 6.33188 146.974 5.93595 147.376 5.70305C147.817 5.42357 148.32 5.28385 148.882 5.28385C149.806 5.28385 150.569 5.72635 151.171 6.61136C151.774 7.49637 152.075 8.63756 152.075 10.0349C152.075 11.4789 151.774 12.6434 151.171 13.5284C150.569 14.3668 149.806 14.786 148.882 14.786C148.32 14.786 147.817 14.6696 147.376 14.4367C146.974 14.1572 146.633 13.7613 146.351 13.2489ZM150.75 10.0349C150.75 8.96361 150.549 8.12518 150.147 7.51965C149.786 6.86754 149.263 6.54149 148.581 6.54149C147.898 6.54149 147.356 6.86754 146.954 7.51965C146.552 8.12518 146.351 8.96361 146.351 10.0349C146.351 11.1528 146.552 12.0146 146.954 12.6201C147.356 13.2722 147.898 13.5983 148.581 13.5983C149.263 13.5983 149.786 13.2722 150.147 12.6201C150.549 12.0146 150.75 11.1528 150.75 10.0349ZM160.751 9.68559V10.3843H154.847C154.887 11.409 155.148 12.2009 155.63 12.7598C156.112 13.2722 156.774 13.5284 157.618 13.5284C158.1 13.5284 158.582 13.4585 159.064 13.3188C159.506 13.1791 159.968 12.9694 160.45 12.69V14.0873C159.968 14.3202 159.486 14.5066 159.004 14.6463C158.522 14.7395 158.04 14.786 157.558 14.786C156.313 14.786 155.329 14.3668 154.606 13.5284C153.883 12.69 153.521 11.5488 153.521 10.1048C153.521 8.66085 153.863 7.49637 154.545 6.61136C155.228 5.72635 156.152 5.28385 157.317 5.28385C158.361 5.28385 159.185 5.67976 159.787 6.47161C160.43 7.26346 160.751 8.33479 160.751 9.68559ZM154.907 9.26637H159.425C159.425 8.42795 159.245 7.77584 158.883 7.31005C158.482 6.79768 157.959 6.54149 157.317 6.54149C156.634 6.54149 156.072 6.77438 155.63 7.24018C155.188 7.70597 154.947 8.38137 154.907 9.26637ZM167.198 5.3537V6.89083C167.077 6.79767 166.936 6.72781 166.776 6.68123C166.575 6.63465 166.374 6.61136 166.173 6.61136C165.45 6.61136 164.888 6.89082 164.486 7.44977C164.125 8.00873 163.944 8.80059 163.944 9.82534V14.5764H162.619V5.49345H163.944V6.9607C164.225 6.40175 164.567 5.98253 164.968 5.70305C165.41 5.42357 165.953 5.28385 166.595 5.28385C166.676 5.28385 166.756 5.30712 166.836 5.3537C166.957 5.3537 167.077 5.3537 167.198 5.3537ZM179.97 12.8297V9.61572H177.681V8.28821H181.356V13.4585C180.834 13.9243 180.232 14.2504 179.549 14.4367C178.906 14.6696 178.223 14.786 177.5 14.786C175.853 14.786 174.568 14.2504 173.644 13.179C172.72 12.0611 172.259 10.524 172.259 8.56768C172.259 6.56477 172.72 5.02765 173.644 3.95632C174.568 2.83842 175.853 2.27947 177.5 2.27947C178.143 2.27947 178.785 2.37263 179.428 2.55894C180.031 2.74526 180.593 3.04804 181.115 3.46725V5.14411C180.593 4.63173 180.031 4.25909 179.428 4.0262C178.866 3.74672 178.243 3.60698 177.56 3.60698C176.315 3.60698 175.371 4.02621 174.729 4.86463C174.086 5.70306 173.765 6.93741 173.765 8.56768C173.765 10.198 174.086 11.409 174.729 12.2009C175.371 13.0393 176.315 13.4585 177.56 13.4585C178.083 13.4585 178.545 13.4119 178.946 13.3188C179.308 13.2256 179.649 13.0626 179.97 12.8297ZM188.285 5.3537V6.89083C188.124 6.79767 187.964 6.72781 187.803 6.68123C187.642 6.63465 187.461 6.61136 187.261 6.61136C186.538 6.61136 185.975 6.89082 185.574 7.44977C185.172 8.00873 184.971 8.80059 184.971 9.82534V14.5764H183.706V5.49345H184.971V6.9607C185.252 6.40175 185.614 5.98253 186.056 5.70305C186.457 5.42357 186.979 5.28385 187.622 5.28385C187.702 5.28385 187.803 5.30712 187.923 5.3537C188.004 5.3537 188.124 5.3537 188.285 5.3537ZM192.201 6.54149C191.518 6.54149 190.976 6.86754 190.574 7.51965C190.173 8.12518 189.972 8.96361 189.972 10.0349C189.972 11.1528 190.153 12.0146 190.514 12.6201C190.916 13.2256 191.478 13.5284 192.201 13.5284C192.884 13.5284 193.426 13.2256 193.828 12.6201C194.229 11.968 194.43 11.1063 194.43 10.0349C194.43 8.96361 194.229 8.12518 193.828 7.51965C193.426 6.86754 192.884 6.54149 192.201 6.54149ZM192.201 5.28385C193.286 5.28385 194.149 5.70306 194.792 6.54149C195.434 7.37991 195.756 8.5444 195.756 10.0349C195.756 11.5255 195.434 12.69 194.792 13.5284C194.149 14.3668 193.286 14.786 192.201 14.786C191.076 14.786 190.193 14.3668 189.55 13.5284C188.907 12.69 188.586 11.5255 188.586 10.0349C188.586 8.5444 188.907 7.37991 189.55 6.54149C190.193 5.70306 191.076 5.28385 192.201 5.28385ZM197.623 11.0131V5.49345H198.889V10.9432C198.889 11.7817 199.029 12.4338 199.31 12.8996C199.632 13.3188 200.074 13.5284 200.636 13.5284C201.319 13.5284 201.861 13.2722 202.263 12.7598C202.664 12.2475 202.865 11.5488 202.865 10.6638V5.49345H204.13V14.5764H202.865V13.179C202.544 13.738 202.182 14.1572 201.781 14.4367C201.379 14.6696 200.897 14.786 200.335 14.786C199.451 14.786 198.768 14.46 198.286 13.8079C197.844 13.2023 197.623 12.2707 197.623 11.0131ZM207.926 13.2489V18H206.601V5.49345H207.926V6.89083C208.167 6.33188 208.488 5.93595 208.89 5.70305C209.332 5.42357 209.834 5.28385 210.396 5.28385C211.36 5.28385 212.123 5.72635 212.686 6.61136C213.288 7.49637 213.589 8.63756 213.589 10.0349C213.589 11.4789 213.288 12.6434 212.686 13.5284C212.123 14.3668 211.36 14.786 210.396 14.786C209.834 14.786 209.332 14.6696 208.89 14.4367C208.488 14.1572 208.167 13.7613 207.926 13.2489ZM212.264 10.0349C212.264 8.96361 212.063 8.12518 211.661 7.51965C211.3 6.86754 210.778 6.54149 210.095 6.54149C209.412 6.54149 208.87 6.86754 208.468 7.51965C208.107 8.12518 207.926 8.96361 207.926 10.0349C207.926 11.1528 208.107 12.0146 208.468 12.6201C208.87 13.2722 209.412 13.5983 210.095 13.5983C210.778 13.5983 211.3 13.2722 211.661 12.6201C212.063 12.0146 212.264 11.1528 212.264 10.0349ZM220.578 5.77292V7.1703C220.217 6.98399 219.835 6.82097 219.434 6.68123C219.032 6.58807 218.63 6.54149 218.229 6.54149C217.586 6.54149 217.104 6.65793 216.783 6.89083C216.461 7.12373 216.301 7.47307 216.301 7.93887C216.301 8.26492 216.421 8.52111 216.662 8.70743C216.863 8.89375 217.325 9.08006 218.048 9.26637L218.47 9.40612C219.353 9.63902 219.996 9.96507 220.398 10.3843C220.799 10.7569 221 11.3159 221 12.0611C221 12.8996 220.699 13.575 220.096 14.0873C219.534 14.5531 218.751 14.786 217.747 14.786C217.345 14.786 216.903 14.7395 216.421 14.6463C215.979 14.5531 215.517 14.4134 215.035 14.2271V12.69C215.477 12.9694 215.939 13.2023 216.421 13.3886C216.863 13.5284 217.305 13.5983 217.747 13.5983C218.349 13.5983 218.831 13.4585 219.193 13.179C219.514 12.9461 219.675 12.6201 219.675 12.2009C219.675 11.7817 219.554 11.4789 219.313 11.2926C219.072 11.0597 218.55 10.8501 217.747 10.6638L217.325 10.524C216.522 10.3377 215.939 10.0349 215.578 9.61572C215.216 9.1965 215.035 8.63756 215.035 7.93887C215.035 7.10044 215.297 6.44834 215.819 5.98254C216.341 5.51675 217.084 5.28385 218.048 5.28385C218.53 5.28385 218.972 5.33042 219.373 5.42358C219.815 5.51674 220.217 5.63318 220.578 5.77292Z" fill="white"/>
<path d="M3 5.24403L11.8759 0.361833C13.2599 -0.389273 15.0789 0.0613917 15.9093 1.41338C16.7397 2.76538 16.2256 4.45536 14.8021 5.24403L8.83104 8.5489L3 5.24403Z" fill="white"/>
<path d="M11.8763 17.6244L1.47628 11.916C0.0527106 11.1649 -0.421794 9.43735 0.408623 8.08536C1.1995 6.77092 3.01848 6.2827 4.44205 7.07136L14.8025 12.7798C16.226 13.5309 16.7401 15.2584 15.9097 16.6104C15.3561 17.5117 14.3675 18 13.3394 18C12.8253 18 12.3508 17.8873 11.8763 17.6244Z" fill="white"/>
<path d="M20.0903 17.6089C19.2994 16.2569 19.7739 14.5294 21.1975 13.7783L27.2872 10.3983L33.5 13.5L24.1633 18.6229C23.6888 18.8858 23.1747 18.9985 22.6606 18.9985C21.6325 18.9985 20.6439 18.5103 20.0903 17.6089Z" fill="white"/>
<path d="M32.5579 11.9149L22.1975 6.24402C20.7739 5.45536 20.2994 3.76537 21.0903 2.41338C21.9207 1.06139 23.7397 0.610727 25.1633 1.36183L35.5237 7.07024C36.9473 7.8589 37.4218 9.54889 36.5914 10.9009C36.0773 11.8022 35.0492 12.2904 34.0606 12.2904C33.5465 12.2904 33.0325 12.1778 32.5579 11.9149V11.9149Z" fill="white"/>
</svg>
