<svg width="45" height="45" viewBox="0 0 45 45" fill="none" xmlns="http://www.w3.org/2000/svg">
<path d="M44 22.5C44 26.7523 42.739 30.9091 40.3766 34.4448C38.0141 37.9804 34.6563 40.7361 30.7277 42.3634C26.7991 43.9907 22.4762 44.4165 18.3056 43.5869C14.135 42.7573 10.304 40.7096 7.29721 37.7028C4.29038 34.696 2.24271 30.865 1.41313 26.6944C0.583544 22.5238 1.00932 18.2009 2.6366 14.2723C4.26388 10.3437 7.01959 6.98585 10.5552 4.6234C14.0909 2.26095 18.2477 1 22.5 1C28.2022 1 33.6708 3.26517 37.7028 7.2972C41.7348 11.3292 44 16.7978 44 22.5ZM36.0181 22.5161C36.0181 19.8425 35.2253 17.2289 33.7399 15.0059C32.2545 12.7828 30.1433 11.0502 27.6732 10.027C25.2031 9.00385 22.485 8.73614 19.8628 9.25774C17.2405 9.77934 14.8318 11.0668 12.9412 12.9574C11.0507 14.8479 9.76323 17.2566 9.24163 19.8789C8.72003 22.5011 8.98773 25.2192 10.0109 27.6893C11.034 30.1594 12.7667 32.2706 14.9897 33.756C17.2128 35.2414 19.8264 36.0342 22.5 36.0342C24.2752 36.0342 26.0331 35.6846 27.6732 35.0052C29.3133 34.3259 30.8035 33.3301 32.0588 32.0749C33.314 30.8196 34.3098 29.3294 34.9891 27.6893C35.6685 26.0492 36.0181 24.2913 36.0181 22.5161ZM16.1763 21.4411H11.1829C11.3783 19.3984 12.122 17.4465 13.3354 15.7917C14.5489 14.1368 16.1869 12.8407 18.0764 12.0402C18.2555 11.965 18.4347 11.8942 18.6139 11.8279C17.0344 14.7875 16.1978 18.0865 16.1763 21.4411ZM16.1763 23.5911C16.1985 26.9459 17.0359 30.2451 18.6166 33.2043C18.4338 33.138 18.2538 33.0672 18.0764 32.992C16.1849 32.1945 14.545 30.8991 13.3312 29.2437C12.1173 27.5883 11.3749 25.6349 11.1829 23.5911H16.1763ZM18.3263 21.4411C18.3739 20.1757 18.5204 18.9159 18.7644 17.6732C19.0085 16.3621 19.41 15.0853 19.9603 13.8704C20.737 12.2176 21.7341 11.148 22.5 11.148C23.2659 11.148 24.263 12.2176 25.0397 13.8704C25.5896 15.0854 25.9911 16.3622 26.2356 17.6732C26.4792 18.9159 26.6257 20.1757 26.6737 21.4411H18.3263ZM26.6737 23.5911C26.6257 24.8565 26.4793 26.1163 26.2356 27.359C25.9909 28.67 25.5894 29.9467 25.0397 31.1618C24.263 32.8173 23.2659 33.8842 22.5 33.8842C21.7341 33.8842 20.737 32.8173 19.9603 31.1618C19.4102 29.9469 19.0087 28.6701 18.7644 27.359C18.5203 26.1164 18.3739 24.8566 18.3263 23.5911H26.6737ZM30.5383 14.4778C32.4112 16.3446 33.5712 18.8082 33.8171 21.4411H28.8237C28.8018 18.0863 27.9643 14.7871 26.3834 11.8279C26.5662 11.8942 26.7463 11.9659 26.9236 12.0429C28.275 12.6125 29.5027 13.4395 30.5383 14.4778ZM28.8237 23.5911H33.8171C33.6214 25.6337 32.8776 27.5856 31.6642 29.2403C30.4508 30.8951 28.8129 32.1913 26.9236 32.992C26.7445 33.069 26.5653 33.1407 26.3861 33.207C27.9666 30.2469 28.8031 26.9467 28.8237 23.5911Z" fill="#0C7086"/>
</svg>
